<?xml version="1.0" encoding="utf-8"?>
<!-- Generator: Adobe Illustrator 26.5.0, SVG Export Plug-In . SVG Version: 6.00 Build 0)  -->
<svg version="1.1" id="Layer_1" xmlns="http://www.w3.org/2000/svg" xmlns:xlink="http://www.w3.org/1999/xlink" x="0px" y="0px"
	 viewBox="0 0 72.3 48.8" style="enable-background:new 0 0 72.3 48.8;" xml:space="preserve">
<style type="text/css">
	.st0{fill:#E4022A;}
</style>
<g>
	<path d="M16.1,0.6h4.7c5,0,7.2,2.7,7.2,7c0,4.5-2.3,7.5-7.5,7.5h-4.4V0.6z M25.6,7.9c0-4.1-1.8-5.4-5-5.4h-2.2v10.7h2
		C24.1,13.2,25.6,11.2,25.6,7.9z"/>
	<path d="M30.6,3c-0.9,0-1.5-0.5-1.5-1.5c0-1,0.6-1.5,1.5-1.5c1,0,1.5,0.5,1.5,1.5C32.1,2.5,31.5,3,30.6,3z M29.4,15.1V4.8h2.3v10.4
		H29.4z"/>
	<path d="M40.8,5.4c0.4-0.8,1-1.4,1.7-1.4c0.3,0,0.5,0,0.8,0.1v1.5c-0.6,0-1.4,0-1.9,0.2c0.6,0.6,0.9,1.5,0.9,2.4
		c0,2.3-1.9,3.7-4.4,3.7c-0.7,0-1.3-0.1-1.8-0.2c-0.3,0.2-0.5,0.5-0.5,0.8c0,0.4,0.2,0.6,1.1,0.7l3,0.2c2.2,0.1,3.5,0.8,3.5,2.7
		c0,2.7-2.6,3.6-5.4,3.6c-3.9,0-4.8-1.3-4.8-2.6c0-1.1,0.8-1.8,1.7-2.1v-0.1c-0.8-0.3-1.2-0.8-1.2-1.6c0-0.9,0.7-1.5,1.5-2.1
		c-0.9-0.5-1.5-1.5-1.5-2.9c0-2.2,1.7-3.8,4.5-3.8C39.1,4.6,40.1,4.8,40.8,5.4z M39.3,15.5L36,15.3c-0.5,0.4-0.9,0.8-0.9,1.4
		c0,0.8,0.7,1.3,2.7,1.3c2,0,3-0.4,3-1.4C40.8,16,40.6,15.5,39.3,15.5z M38,6.3c-1.3,0-2.3,0.6-2.3,1.9c0,1.2,0.7,1.9,2.3,1.9
		c1.3,0,2.2-0.7,2.2-1.9C40.2,7,39.4,6.3,38,6.3z"/>
	<path d="M45.6,3c-0.9,0-1.5-0.5-1.5-1.5c0-1,0.6-1.5,1.5-1.5c1,0,1.5,0.5,1.5,1.5C47.2,2.5,46.6,3,45.6,3z M44.5,15.1V4.8h2.3v10.4
		H44.5z"/>
	<path d="M52.5,15.4c-2,0-3.1-0.9-3.1-3.1V6.5h-1.6V4.8h1.6v-3l2.3-0.3v3.4h2.8v1.7h-2.8v5.5c0,1,0.3,1.6,1.4,1.6
		c0.6,0,1.3-0.2,1.8-0.5l0.4,1.6C54.7,15,53.6,15.4,52.5,15.4z"/>
	<path d="M64.6,13.8c0.2,0,0.4,0,0.6-0.1l0.1,1.4c-0.4,0.2-1.1,0.3-1.6,0.3c-1.1,0-1.6-0.4-1.7-1.2c-0.7,0.8-1.8,1.3-3.3,1.3
		c-2.6,0-3.1-1.8-3.1-2.8c0-2.7,2.3-3.6,5.1-3.6c0.5,0,0.8,0,1.1,0V8.3c0-1.3-0.3-2-1.8-2c-1.3,0-1.7,0.5-1.9,1.6l-2-0.4
		c0.3-1.9,1.6-3,4.1-3c2.6,0,3.9,1,3.9,3.6V13C63.9,13.5,64,13.8,64.6,13.8z M60.7,10.6c-1.2,0-2.8,0.1-2.8,1.7
		c0,0.7,0.3,1.4,1.5,1.4c0.9,0,1.8-0.5,2.3-1v-2C61.5,10.6,61.3,10.6,60.7,10.6z"/>
	<path d="M66.1,15.1V0h2.3v15.1H66.1z"/>
	<path d="M9,20.7L9,20.7L6.2,31.9h-3L0,17.3h2.5l2.3,11.9h0l2.9-11.9h2.5l3,12h0l2.2-12h2.3l-3.1,14.5h-3L9,20.7z"/>
	<path d="M20.2,19.8c-0.9,0-1.5-0.5-1.5-1.5c0-1,0.6-1.5,1.5-1.5c1,0,1.5,0.5,1.5,1.5C21.7,19.2,21.2,19.8,20.2,19.8z M19,31.9V21.5
		h2.3v10.4H19z"/>
	<path d="M27.3,32.1c-2,0-3.1-0.9-3.1-3.1v-5.8h-1.6v-1.7h1.6v-3l2.3-0.3v3.4h2.8v1.7h-2.8v5.5c0,1,0.3,1.6,1.4,1.6
		c0.6,0,1.3-0.2,1.8-0.5l0.4,1.6C29.5,31.7,28.4,32.1,27.3,32.1z"/>
	<path d="M37.7,31.9v-6.7c0-1.3-0.5-2-1.7-2c-1,0-2.1,0.6-2.6,1.1v7.6H31V21.5h2l0.1,1.1c0.9-0.7,2.2-1.3,3.6-1.3
		c2.2,0,3.2,1.2,3.2,3.5v7.1H37.7z"/>
	<path d="M41.2,26.7c0-3.8,2.2-5.4,5-5.4c3,0,4.3,1.9,4.3,4.6c0,0.4,0,0.9-0.1,1.4h-6.7c0.1,2.2,1.1,3,2.6,3c1.3,0,1.9-0.6,2.1-1.7
		l2,0.5c-0.4,2-2,3.1-4.2,3.1C42.3,32.1,41.2,29.5,41.2,26.7z M46,23.1c-1.2,0-2.2,0.7-2.3,2.5H48C48,23.9,47.4,23.1,46,23.1z"/>
	<path d="M59.6,24.2l-2,0.5c-0.2-1-0.6-1.7-2-1.7c-1.3,0-1.8,0.5-1.8,1.2c0,1,0.9,1.2,2.2,1.5c1.8,0.3,3.7,0.7,3.7,3.1
		c0,2.1-1.7,3.3-4.3,3.3c-2.5,0-3.9-1-4.2-2.9l2-0.6c0.3,1,0.7,1.8,2.3,1.8c1.1,0,1.9-0.4,1.9-1.2c0-1-0.8-1.2-2.2-1.5
		c-1.7-0.3-3.7-0.7-3.7-3.2c0-2.2,1.8-3.2,4-3.2C58.1,21.3,59.2,22.4,59.6,24.2z"/>
	<path d="M68.9,24.2l-2,0.5c-0.2-1-0.6-1.7-2-1.7c-1.3,0-1.8,0.5-1.8,1.2c0,1,0.9,1.2,2.2,1.5c1.8,0.3,3.7,0.7,3.7,3.1
		c0,2.1-1.7,3.3-4.3,3.3c-2.5,0-3.9-1-4.2-2.9l2-0.6c0.3,1,0.7,1.8,2.3,1.8c1.1,0,1.9-0.4,1.9-1.2c0-1-0.8-1.2-2.2-1.5
		C62.9,27.3,61,27,61,24.5c0-2.2,1.8-3.2,4-3.2C67.4,21.3,68.5,22.4,68.9,24.2z"/>
	<path d="M48.2,46.6v2h-8.8V34.1h2.3v12.5H48.2z"/>
	<path d="M57.9,47.2c0.2,0,0.4,0,0.6-0.1l0.1,1.4c-0.4,0.2-1.1,0.3-1.6,0.3c-1.1,0-1.6-0.4-1.7-1.2c-0.7,0.8-1.8,1.3-3.3,1.3
		c-2.6,0-3.1-1.8-3.1-2.8c0-2.7,2.3-3.6,5.1-3.6c0.5,0,0.8,0,1.1,0v-0.8c0-1.3-0.3-2-1.8-2c-1.3,0-1.7,0.5-1.9,1.6l-2-0.4
		c0.3-1.9,1.6-3,4.1-3c2.6,0,3.9,1,3.9,3.6v4.8C57.2,47,57.3,47.2,57.9,47.2z M54,44.1c-1.2,0-2.8,0.1-2.8,1.7
		c0,0.7,0.3,1.4,1.5,1.4c0.9,0,1.8-0.5,2.3-1v-2C54.8,44.1,54.6,44.1,54,44.1z"/>
	<path d="M59.5,33.4h2.3v5.8c0.9-0.8,1.9-1.2,3.4-1.2c2.1,0,3.8,1.4,3.8,5.2c0,4.1-1.9,5.7-4.3,5.7c-1.3,0-2.2-0.5-2.9-1.1l0,0
		l-0.1,0.9h-2V33.4z M64.1,46.9c1.7,0,2.4-1.3,2.4-3.7c0-2.1-0.6-3.3-2.2-3.3c-1,0-2,0.6-2.5,1.1v5C62.2,46.3,63.1,46.9,64.1,46.9z"
		/>
</g>
<path d="M70.9,48.8c-0.9,0-1.4-0.4-1.4-1.3c0-0.9,0.5-1.3,1.4-1.3c0.9,0,1.4,0.5,1.4,1.3S71.8,48.8,70.9,48.8z"/>
<g>
	<rect x="4.6" y="36.5" class="st0" width="31.7" height="1.4"/>
</g>
</svg>
