<?xml version="1.0" encoding="utf-8"?>
<!-- Generator: Adobe Illustrator 26.5.0, SVG Export Plug-In . SVG Version: 6.00 Build 0)  -->
<svg version="1.1" id="Layer_1" xmlns="http://www.w3.org/2000/svg" xmlns:xlink="http://www.w3.org/1999/xlink" x="0px" y="0px"
	 viewBox="0 0 1366 768" style="enable-background:new 0 0 1366 768;" xml:space="preserve">
<style type="text/css">
	.st0{fill:none;stroke:#000000;stroke-width:0.5;stroke-miterlimit:10;}
</style>
<g>
	<path class="st0" d="M521.6,264C247,293.1,44.1,384.5,44.1,384.5S247,475.9,521.6,505c-25.2-33.7-40.6-75.2-40.6-120.5
		S496.4,297.8,521.6,264z"/>
	<path class="st0" d="M845.4,264c25.2,33.7,40.6,75.2,40.6,120.5s-15.4,86.7-40.6,120.5c274.6-29.1,477.5-120.5,477.5-120.5
		S1120,293.1,845.4,264z"/>
	<path class="st0" d="M805.9,260.1c-39.7-3.2-80.5-5.1-122.4-5.1s-82.8,1.9-122.4,5.1c-32.2,31.7-52.2,75.6-52.2,124.3
		c0,48.7,20,92.7,52.2,124.4c39.7,3.2,80.5,5.1,122.4,5.1s82.8-1.9,122.4-5.1c32.2-31.7,52.2-75.6,52.2-124.4
		C858.1,335.8,838.1,291.8,805.9,260.1z M683.5,419.5c-19.3,0-35-15.7-35-35c0-19.3,15.7-35,35-35c19.3,0,35,15.7,35,35
		C718.5,403.8,702.8,419.5,683.5,419.5z M781.1,334.6c-11.3,0-20.4-9.1-20.4-20.4c0-11.3,9.1-20.4,20.4-20.4
		c11.3,0,20.4,9.1,20.4,20.4C801.5,325.4,792.4,334.6,781.1,334.6z"/>
</g>
</svg>
